<svg width="16" height="17" viewBox="0 0 16 17" fill="none" xmlns="http://www.w3.org/2000/svg">
<path fill-rule="evenodd" clip-rule="evenodd" d="M7.98037 2L8 2L8.01963 2H8.01969C8.19019 1.99999 8.3009 1.99999 8.40392 2.00707C9.5425 2.08537 10.538 2.80291 10.9724 3.8583C10.9904 3.90202 11.0075 3.94775 11.0259 4L12.6667 4L14 4C14.2761 4 14.5 4.22386 14.5 4.5C14.5 4.77614 14.2761 5 14 5L13.1344 5L12.765 10.5421L12.7633 10.5672C12.7127 11.3259 12.6724 11.9303 12.5944 12.414C12.5142 12.9108 12.3877 13.3282 12.1359 13.6957C11.8885 14.0568 11.5652 14.3593 11.1885 14.5821C10.805 14.8089 10.3802 14.9073 9.87913 14.9543C9.3913 15 8.78556 15 8.02511 15H8H7.97489C7.21444 15 6.6087 15 6.12087 14.9543C5.61984 14.9073 5.19496 14.8089 4.81151 14.5821C4.43485 14.3593 4.11149 14.0568 3.86412 13.6957C3.6123 13.3282 3.48583 12.9108 3.40564 12.414C3.32757 11.9303 3.28728 11.3259 3.2367 10.5671L3.23503 10.5421L2.86556 5H2C1.72386 5 1.5 4.77614 1.5 4.5C1.5 4.22386 1.72386 4 2 4H3.33333L4.97413 4C4.99255 3.94775 5.00964 3.90202 5.02764 3.8583C5.46197 2.80291 6.4575 2.08537 7.59608 2.00707C7.6991 1.99999 7.80981 1.99999 7.98031 2H7.98037ZM9.93021 4C9.60042 3.42852 9.00498 3.05077 8.33532 3.00472C8.27094 3.00029 8.19685 3 8 3C7.80315 3 7.72906 3.00029 7.66468 3.00472C6.99502 3.05077 6.39958 3.42852 6.06979 4H9.93021ZM3.86778 5L4.23282 10.4756C4.28545 11.2651 4.32313 11.8227 4.39287 12.2547C4.46135 12.679 4.55421 12.9337 4.68904 13.1305C4.85395 13.3712 5.06953 13.5729 5.32064 13.7214C5.52595 13.8428 5.78631 13.9185 6.21419 13.9587C6.64991 13.9995 7.20879 14 8 14C8.79121 14 9.35009 13.9995 9.78581 13.9587C10.2137 13.9185 10.4741 13.8428 10.6794 13.7214C10.9305 13.5729 11.146 13.3712 11.311 13.1305C11.4458 12.9337 11.5387 12.679 11.6071 12.2547C11.6769 11.8227 11.7146 11.2651 11.7672 10.4756L12.1322 5L10.6667 5L5.33333 5L3.86778 5ZM6.66667 6.66667C6.94281 6.66667 7.16667 6.89053 7.16667 7.16667L7.16667 11.8333C7.16667 12.1095 6.94281 12.3333 6.66667 12.3333C6.39052 12.3333 6.16667 12.1095 6.16667 11.8333L6.16667 7.16667C6.16667 6.89053 6.39052 6.66667 6.66667 6.66667ZM9.83333 7.16667C9.83333 6.89053 9.60948 6.66667 9.33333 6.66667C9.05719 6.66667 8.83333 6.89053 8.83333 7.16667L8.83333 9.83334C8.83333 10.1095 9.05719 10.3333 9.33333 10.3333C9.60948 10.3333 9.83333 10.1095 9.83333 9.83334V7.16667Z" fill="#E63C3C"/>
</svg>
