<svg width="16" height="16" viewBox="0 0 16 16" fill="none" xmlns="http://www.w3.org/2000/svg">
<path d="M4.66675 4.66667C7.25934 3.77778 8.74082 3.77778 11.3334 4.66667" stroke="#639EF1" stroke-linecap="round" stroke-linejoin="round"/>
<path d="M4.66675 11.3333C7.00008 12.2222 9.00008 12.2222 11.3334 11.3333" stroke="#639EF1" stroke-linecap="round" stroke-linejoin="round"/>
<path d="M5.90473 11.75C5.90473 12.5 4.49074 14 4.12808 14C3.03934 14 2.07249 12.7498 1.58869 11.75C1.10489 10.4998 1.22603 7.37525 2.67668 3.125C3.73418 2.36375 4.79626 2.12 5.90481 2L6.66671 4" stroke="#639EF1" stroke-linecap="round" stroke-linejoin="round"/>
<path d="M10.0954 11.75C10.0954 12.5 11.5094 14 11.872 14C12.9608 14 13.9276 12.7498 14.4114 11.75C14.8952 10.4998 14.7741 7.37525 13.3234 3.125C12.2659 2.36375 11.2039 2.12 10.0953 2L9.33341 4" stroke="#639EF1" stroke-linecap="round" stroke-linejoin="round"/>
<path d="M5.00673 8H5M11 8H10.9933" stroke="#639EF1" stroke-width="1.5" stroke-linecap="round" stroke-linejoin="round"/>
</svg>
