<svg width="16" height="17" viewBox="0 0 16 17" fill="none" xmlns="http://www.w3.org/2000/svg">
<path fill-rule="evenodd" clip-rule="evenodd" d="M11.3535 3.85354C11.7105 3.49653 12.2893 3.49653 12.6464 3.85356C13.0033 4.21057 13.0033 4.78939 12.6463 5.1464L12.1083 5.68444C11.3909 5.70062 10.7993 5.10904 10.8154 4.39162L11.3535 3.85354ZM9.98573 3.80708C9.98143 3.81122 9.97721 3.81545 9.97306 3.81975L4.54651 9.24624L4.49254 9.30021C3.7653 10.0273 3.33082 10.4617 3.02914 10.9945C2.72746 11.5273 2.57851 12.1234 2.32918 13.1211L2.31068 13.1951L2.18144 13.7121C2.13885 13.8824 2.18877 14.0627 2.31296 14.1869C2.43715 14.3111 2.61739 14.361 2.78778 14.3184L3.30474 14.1892L3.37879 14.1706C4.37646 13.9213 4.97251 13.7724 5.50533 13.4707C6.03814 13.169 6.47254 12.7346 7.19963 12.0073L7.25359 11.9534L12.6826 6.52434C12.6852 6.5218 12.6878 6.51923 12.6903 6.51663L13.3534 5.8535C14.101 5.10598 14.101 3.89401 13.3535 3.14647C12.6059 2.39891 11.3939 2.39889 10.6464 3.14643L9.98573 3.80708ZM11.261 6.53173L6.54649 11.2462C5.74911 12.0436 5.41307 12.3738 5.01263 12.6005C4.64979 12.8059 4.24133 12.9223 3.35398 13.1459C3.57749 12.2585 3.6939 11.8501 3.89934 11.4872C4.12607 11.0868 4.45623 10.7507 5.25361 9.95335L9.96813 5.23889C10.1986 5.8291 10.6708 6.30131 11.261 6.53173Z" fill="#639EF1"/>
</svg>
