<svg width="16" height="16" viewBox="0 0 16 16" fill="none" xmlns="http://www.w3.org/2000/svg">
<path fill-rule="evenodd" clip-rule="evenodd" d="M5.33328 2.16666L5.2967 2.16666C4.38498 2.16664 3.65009 2.16663 3.07212 2.24434C2.47204 2.32502 1.9668 2.49761 1.56552 2.89889C1.16424 3.30017 0.991644 3.80542 0.910966 4.40549C0.833259 4.98347 0.83327 5.71835 0.833284 6.63008L0.833284 6.66666V9.33332L0.833284 9.36991C0.83327 10.2816 0.833259 11.0165 0.910966 11.5945C0.991644 12.1946 1.16424 12.6998 1.56552 13.1011C1.9668 13.5024 2.47204 13.675 3.07212 13.7556C3.6501 13.8334 4.38498 13.8333 5.29671 13.8333H5.33328H10.6666H10.7032C11.6149 13.8333 12.3498 13.8334 12.9278 13.7556C13.5279 13.675 14.0331 13.5024 14.4344 13.1011C14.8357 12.6998 15.0083 12.1946 15.0889 11.5945C15.1666 11.0165 15.1666 10.2816 15.1666 9.36989V9.33332V6.66666V6.63009C15.1666 5.71836 15.1666 4.98347 15.0889 4.40549C15.0083 3.80542 14.8357 3.30017 14.4344 2.89889C14.0331 2.49761 13.5279 2.32502 12.9278 2.24434C12.3498 2.16663 11.6149 2.16664 10.7032 2.16666L10.6666 2.16666H5.33328ZM2.27262 3.606C2.45713 3.42149 2.71618 3.30119 3.20536 3.23542C3.70893 3.16772 4.37634 3.16666 5.33328 3.16666H10.6666C11.6236 3.16666 12.291 3.16772 12.7945 3.23542C13.2837 3.30119 13.5428 3.42149 13.7273 3.606C13.9118 3.79051 14.0321 4.04956 14.0979 4.53874C14.1656 5.04231 14.1666 5.70971 14.1666 6.66666V9.33332C14.1666 10.2903 14.1656 10.9577 14.0979 11.4612C14.0321 11.9504 13.9118 12.2095 13.7273 12.394C13.5428 12.5785 13.2837 12.6988 12.7945 12.7646C12.291 12.8323 11.6236 12.8333 10.6666 12.8333H5.33328C4.37634 12.8333 3.70893 12.8323 3.20536 12.7646C2.71618 12.6988 2.45713 12.5785 2.27262 12.394C2.08812 12.2095 1.96782 11.9504 1.90205 11.4612C1.83435 10.9577 1.83328 10.2903 1.83328 9.33332V6.66666C1.83328 5.70972 1.83435 5.04231 1.90205 4.53874C1.96782 4.04956 2.08812 3.79051 2.27262 3.606ZM4.2773 4.9173C4.04754 4.76412 3.7371 4.82621 3.58393 5.05597C3.43075 5.28574 3.49284 5.59617 3.7226 5.74935L7.7226 8.41602C7.89055 8.52798 8.10935 8.52798 8.2773 8.41602L12.2773 5.74935C12.5071 5.59617 12.5692 5.28574 12.416 5.05597C12.2628 4.82621 11.9524 4.76412 11.7226 4.9173L7.99995 7.39907L4.2773 4.9173Z" fill="#639EF1"/>
</svg>
