<svg width="16" height="16" viewBox="0 0 16 16" fill="none" xmlns="http://www.w3.org/2000/svg">
<g clip-path="url(#clip0_144_476)">
<path d="M6.66665 13.7116C4.38093 14.4832 2.47617 13.7116 1.33331 11.3333" stroke="#639EF1" stroke-linecap="round" stroke-linejoin="round"/>
<path d="M6.66665 14.6666V12.5052C6.66665 12.1064 6.78927 11.7597 6.98692 11.4466C7.1225 11.2317 7.02964 10.9269 6.7847 10.8596C4.75594 10.3019 3.33331 9.40513 3.33331 6.43068C3.33331 5.65738 3.58668 4.93035 4.03205 4.29758C4.14289 4.1401 4.19831 4.06136 4.21163 3.99005C4.22495 3.91873 4.20179 3.82566 4.15546 3.63952C3.9669 2.88192 3.97912 2.07744 4.26213 1.35213C4.26213 1.35213 4.84693 1.16159 6.17796 1.99311C6.48186 2.18296 6.63381 2.27788 6.76763 2.29912C6.90145 2.32035 7.08037 2.27588 7.43821 2.18692C7.92753 2.06528 8.4317 1.99998 8.99998 1.99998C9.56826 1.99998 10.0724 2.06528 10.5618 2.18692C10.9196 2.27588 11.0985 2.32035 11.2323 2.29912C11.3661 2.27788 11.5181 2.18296 11.822 1.99311C13.153 1.16159 13.7378 1.35213 13.7378 1.35213C14.0208 2.07744 14.0331 2.88192 13.8445 3.63952C13.7982 3.82566 13.775 3.91873 13.7883 3.99005C13.8016 4.06136 13.8571 4.1401 13.9679 4.29758C14.4133 4.93035 14.6666 5.65738 14.6666 6.43068C14.6666 9.40513 13.244 10.3019 11.2153 10.8596C10.9703 10.9269 10.8775 11.2317 11.013 11.4466C11.2107 11.7597 11.3333 12.1064 11.3333 12.5052V14.6666" stroke="#639EF1" stroke-linecap="round" stroke-linejoin="round"/>
</g>
<defs>
<clipPath id="clip0_144_476">
<rect width="16" height="16" fill="white"/>
</clipPath>
</defs>
</svg>
