<svg width="16" height="16" viewBox="0 0 16 16" fill="none" xmlns="http://www.w3.org/2000/svg">
<path fill-rule="evenodd" clip-rule="evenodd" d="M3.66086 1.5C3.66877 1.5 3.67671 1.5 3.68468 1.5L3.70343 1.5C3.94257 1.49999 4.15155 1.49998 4.3258 1.51435C4.51209 1.5297 4.69598 1.5636 4.87691 1.65186C5.06547 1.74385 5.23265 1.87437 5.36762 2.035C5.49713 2.18912 5.57462 2.3593 5.6347 2.5363C5.69089 2.70186 5.74157 2.90461 5.79956 3.13661L5.80411 3.1548L6.18116 4.66302C6.18306 4.67063 6.18496 4.67821 6.18685 4.68576C6.25589 4.96186 6.31674 5.20519 6.34626 5.4132C6.37824 5.63848 6.38067 5.86424 6.30423 6.09904C6.22778 6.33384 6.0929 6.5149 5.93443 6.67817C5.78811 6.82893 5.59567 6.98979 5.37731 7.17232L5.35932 7.18736L3.96403 8.35387C4.83291 9.92679 6.07323 11.1671 7.64615 12.036L8.81266 10.6407L8.82769 10.6227C9.01022 10.4044 9.17109 10.2119 9.32185 10.0656C9.48512 9.90712 9.66618 9.77224 9.90098 9.69579C10.1358 9.61935 10.3615 9.62178 10.5868 9.65376C10.7948 9.68328 11.0382 9.74413 11.3143 9.81317L11.337 9.81886L12.8452 10.1959L12.8634 10.2005C13.0954 10.2585 13.2982 10.3091 13.4637 10.3653C13.6407 10.4254 13.8109 10.5029 13.965 10.6324C14.1256 10.7674 14.2562 10.9345 14.3482 11.1231C14.4364 11.304 14.4703 11.4879 14.4857 11.6742C14.5 11.8485 14.5 12.0575 14.5 12.2966V12.3153V12.3392C14.5 12.6389 14.5001 12.9011 14.4775 13.1181C14.4533 13.3515 14.3994 13.579 14.262 13.7928C14.1247 14.0066 13.9105 14.2009 13.6844 14.3169C13.4638 14.43 13.2427 14.4645 13.0153 14.4677C12.8083 14.4705 12.5651 14.4468 12.2932 14.4203L12.2692 14.4179C10.5094 14.2462 8.92563 13.8066 7.54612 13.1134C5.49668 12.0837 3.91633 10.5033 2.88658 8.4539C2.19344 7.07439 1.75381 5.49061 1.58211 3.73083C1.58133 3.7228 1.58055 3.71479 1.57977 3.70681C1.55322 3.43494 1.52948 3.19174 1.53234 2.98473C1.53548 2.75733 1.57004 2.53624 1.68314 2.31564C1.79909 2.08949 1.99337 1.87534 2.20719 1.73798C2.42103 1.60061 2.6485 1.54676 2.88194 1.52251C3.09891 1.49997 3.36113 1.49998 3.66086 1.5ZM8.57179 12.4879C9.69209 12.968 10.9599 13.2854 12.3663 13.4226C12.6696 13.4522 12.8568 13.4698 13.0015 13.4678C13.1318 13.466 13.1875 13.4478 13.2281 13.427C13.2974 13.3915 13.3787 13.3178 13.4207 13.2523C13.442 13.2192 13.4674 13.1632 13.4829 13.0148C13.4994 12.8556 13.5 12.6459 13.5 12.3153C13.5 12.052 13.4996 11.8846 13.4891 11.7564C13.4791 11.6356 13.4624 11.5882 13.4494 11.5616C13.4187 11.4987 13.3752 11.443 13.3217 11.398C13.299 11.3789 13.257 11.3512 13.1423 11.3123C13.0204 11.2709 12.8582 11.2299 12.6027 11.1661L11.0945 10.789C10.7888 10.7126 10.5965 10.6652 10.4463 10.6438C10.3077 10.6242 10.249 10.6341 10.2106 10.6467C10.1721 10.6592 10.1188 10.6857 10.0183 10.7832C9.90948 10.8888 9.78192 11.0404 9.57986 11.2821L8.57179 12.4879ZM3.51214 7.42823L4.71791 6.42016C4.95961 6.2181 5.1112 6.09054 5.21685 5.98169C5.31435 5.88124 5.34082 5.82795 5.35335 5.78947C5.36588 5.75098 5.37586 5.69232 5.35618 5.55372C5.33487 5.40354 5.28743 5.21118 5.21102 4.90556L4.83397 3.39734C4.7701 3.14186 4.72912 2.97957 4.68776 2.85771C4.64881 2.74298 4.62108 2.701 4.60204 2.67833C4.55704 2.62479 4.50132 2.58128 4.43846 2.55062C4.41186 2.53764 4.3644 2.52092 4.24365 2.51096C4.1154 2.50039 3.94802 2.5 3.68468 2.5C3.35416 2.5 3.1444 2.50063 2.98526 2.51716C2.83687 2.53257 2.78081 2.55805 2.74768 2.57933C2.68224 2.62137 2.60849 2.70266 2.573 2.77188C2.55219 2.81248 2.53405 2.86821 2.53224 2.99856C2.53024 3.1432 2.54779 3.33042 2.57739 3.63373C2.7146 5.04009 3.03204 6.30793 3.51214 7.42823Z" fill="#639EF1"/>
</svg>
