<svg width="24" height="19" viewBox="0 0 24 19" fill="none" xmlns="http://www.w3.org/2000/svg">
<path d="M22.0165 0V3.76996H19.83C18.0204 3.76996 17.1156 4.67475 17.1156 6.48433V8.8971H18.1712C19.6289 8.8971 20.8353 9.34949 21.7903 10.2543C22.7957 11.1591 23.2983 12.2901 23.2983 13.6472C23.2983 15.105 22.7957 16.2862 21.7903 17.191C20.8353 18.0958 19.6289 18.5482 18.1712 18.5482C16.7135 18.5482 15.5071 18.0707 14.552 17.1156C13.597 16.1605 13.1194 14.9542 13.1194 13.4964V6.48433C13.1194 2.16144 15.2809 0 19.6038 0H22.0165ZM8.8971 0V3.76996H6.71052C4.90094 3.76996 3.99615 4.67475 3.99615 6.48433V8.8971H5.05174C6.50946 8.8971 7.71584 9.34949 8.6709 10.2543C9.67622 11.1591 10.1789 12.2901 10.1789 13.6472C10.1789 15.105 9.67622 16.2862 8.6709 17.191C7.71584 18.0958 6.50946 18.5482 5.05174 18.5482C3.59402 18.5482 2.38764 18.0707 1.43258 17.1156C0.477528 16.1605 0 14.9542 0 13.4964V6.48433C0 2.16144 2.16144 0 6.48432 0H8.8971Z" fill="#E63C3C"/>
</svg>
