<svg width="16" height="16" viewBox="0 0 16 16" fill="none" xmlns="http://www.w3.org/2000/svg">
<path d="M7.99033 10.2722L10.1512 12.729C10.9519 13.6393 11.3522 14.0944 11.7712 13.9836C12.1902 13.8728 12.3339 13.2738 12.6212 12.0759L14.2153 5.4306C14.6579 3.58555 14.8792 2.66302 14.3873 2.208C13.8954 1.75298 13.0427 2.0915 11.3374 2.76854L3.42588 5.90966C2.06199 6.45116 1.38005 6.72191 1.33675 7.18723C1.33232 7.23482 1.33225 7.28275 1.33653 7.33036C1.3784 7.79581 2.05952 8.06884 3.42174 8.61488C4.03896 8.86229 4.34757 8.986 4.56884 9.22291C4.59372 9.24955 4.61764 9.27713 4.64056 9.3056C4.84443 9.55891 4.93143 9.89137 5.10543 10.5563L5.43106 11.8007C5.60038 12.4477 5.68503 12.7712 5.90676 12.8153C6.12849 12.8594 6.32154 12.5912 6.70764 12.0546L7.99033 10.2722ZM7.99033 10.2722L7.77846 10.0514C7.53733 9.8001 7.41677 9.67445 7.41677 9.51831C7.41677 9.36217 7.53733 9.23652 7.77846 8.98522L10.1604 6.50273" stroke="#639EF1" stroke-linecap="round" stroke-linejoin="round"/>
</svg>
